HIERARCHY
ROOT Model
{
	OFFSET 0 0 0
	CHANNELS 6 Xposition Yposition Zposition Zrotation Xrotation Yrotation
	JOINT Model1
	{
		OFFSET 0 -2.25479 2.99384
		CHANNELS 3 Zrotation Xrotation Yrotation
		JOINT Model2
		{
			OFFSET 12.111 0 0
			CHANNELS 3 Zrotation Xrotation Yrotation
			JOINT Model3
			{
				OFFSET 11.5502 0 0
				CHANNELS 3 Zrotation Xrotation Yrotation
				JOINT Model4
				{
					OFFSET 11.781 0 0
					CHANNELS 3 Zrotation Xrotation Yrotation
					JOINT Model5
					{
						OFFSET 20.0601 0 0
						CHANNELS 3 Zrotation Xrotation Yrotation
						JOINT Model6
						{
							OFFSET 11.1962 0 0
							CHANNELS 3 Zrotation Xrotation Yrotation
							End Site
							{
								OFFSET 0 0 0
							}
						}
					}
					JOINT Model7
					{
						OFFSET 10.8223 0.417534 3.51114
						CHANNELS 3 Zrotation Xrotation Yrotation
						JOINT Model8
						{
							OFFSET -6.07944 0 0
							CHANNELS 3 Zrotation Xrotation Yrotation
							JOINT Model9
							{
								OFFSET -0.277405 10.39 -0.051239
								CHANNELS 3 Zrotation Xrotation Yrotation
								JOINT Model10
								{
									OFFSET -3.43909 -0.282043 1.86679
									CHANNELS 3 Zrotation Xrotation Yrotation
									JOINT Model11
									{
										OFFSET 13.0269 0 0
										CHANNELS 3 Zrotation Xrotation Yrotation
										JOINT Model12
										{
											OFFSET 10.8866 0 0
											CHANNELS 3 Zrotation Xrotation Yrotation
											JOINT Model13
											{
												OFFSET 16.7317 0 0
												CHANNELS 3 Zrotation Xrotation Yrotation
												JOINT Model14
												{
													OFFSET 11.8292 0 0
													CHANNELS 3 Zrotation Xrotation Yrotation
													JOINT Model15
													{
														OFFSET 4.82751 -3.73566 -0.836517
														CHANNELS 3 Zrotation Xrotation Yrotation
														JOINT Model16
														{
															OFFSET 3.75311 -0.0582886 -0.0186462
															CHANNELS 3 Zrotation Xrotation Yrotation
															JOINT Model17
															{
																OFFSET 2.88689 0.0192337 0.014801
																CHANNELS 3 Zrotation Xrotation Yrotation
																End Site
																{
																	OFFSET 0 0 0
																}
															}
														}
													}
													JOINT Model18
													{
														OFFSET 9.72197 -3.06458 0.23877
														CHANNELS 3 Zrotation Xrotation Yrotation
														JOINT Model19
														{
															OFFSET 4.61131 0 0
															CHANNELS 3 Zrotation Xrotation Yrotation
															JOINT Model20
															{
																OFFSET 2.8969 -7.62939e-006 0
																CHANNELS 3 Zrotation Xrotation Yrotation
																End Site
																{
																	OFFSET 0 0 0
																}
															}
														}
													}
													JOINT Model21
													{
														OFFSET 9.54431 -0.745064 0.588928
														CHANNELS 3 Zrotation Xrotation Yrotation
														JOINT Model22
														{
															OFFSET 5.33978 0 0
															CHANNELS 3 Zrotation Xrotation Yrotation
															JOINT Model23
															{
																OFFSET 3.03619 7.62939e-006 0
																CHANNELS 3 Zrotation Xrotation Yrotation
																End Site
																{
																	OFFSET 0 0 0
																}
															}
														}
													}
													JOINT Model24
													{
														OFFSET 9.47758 1.51286 0.485107
														CHANNELS 3 Zrotation Xrotation Yrotation
														JOINT Model25
														{
															OFFSET 4.96136 7.62939e-006 0
															CHANNELS 3 Zrotation Xrotation Yrotation
															JOINT Model26
															{
																OFFSET 2.51965 0 0
																CHANNELS 3 Zrotation Xrotation Yrotation
																End Site
																{
																	OFFSET 0 0 0
																}
															}
														}
													}
													JOINT Model27
													{
														OFFSET 9.34247 3.34117 -0.239288
														CHANNELS 3 Zrotation Xrotation Yrotation
														JOINT Model28
														{
															OFFSET 3.28259 2.28882e-005 0
															CHANNELS 3 Zrotation Xrotation Yrotation
															JOINT Model29
															{
																OFFSET 2.1292 0 0
																CHANNELS 3 Zrotation Xrotation Yrotation
																End Site
																{
																	OFFSET 0 0 0
																}
															}
														}
													}
												}
											}
										}
									}
								}
							}
						}
					}
					JOINT Model30
					{
						OFFSET 10.8223 0.4179 -3.51108
						CHANNELS 3 Zrotation Xrotation Yrotation
						JOINT Model31
						{
							OFFSET 6.07944 0 0
							CHANNELS 3 Zrotation Xrotation Yrotation
							JOINT Model32
							{
								OFFSET 0.277405 -10.39 0.051239
								CHANNELS 3 Zrotation Xrotation Yrotation
								JOINT Model33
								{
									OFFSET 3.43909 0.282043 -1.86679
									CHANNELS 3 Zrotation Xrotation Yrotation
									JOINT Model34
									{
										OFFSET -13.0269 0 0
										CHANNELS 3 Zrotation Xrotation Yrotation
										JOINT Model35
										{
											OFFSET -10.8866 0 0
											CHANNELS 3 Zrotation Xrotation Yrotation
											JOINT Model36
											{
												OFFSET -16.7317 0 0
												CHANNELS 3 Zrotation Xrotation Yrotation
												JOINT Model37
												{
													OFFSET -11.8292 0 0
													CHANNELS 3 Zrotation Xrotation Yrotation
													JOINT Model38
													{
														OFFSET -4.82751 3.73566 0.836517
														CHANNELS 3 Zrotation Xrotation Yrotation
														JOINT Model39
														{
															OFFSET -3.75311 0.0582886 0.0186462
															CHANNELS 3 Zrotation Xrotation Yrotation
															JOINT Model40
															{
																OFFSET -2.88687 -0.0192337 -0.014801
																CHANNELS 3 Zrotation Xrotation Yrotation
																End Site
																{
																	OFFSET 0 0 0
																}
															}
														}
													}
													JOINT Model41
													{
														OFFSET -9.72198 3.06459 -0.23877
														CHANNELS 3 Zrotation Xrotation Yrotation
														JOINT Model42
														{
															OFFSET -4.6113 0 0
															CHANNELS 3 Zrotation Xrotation Yrotation
															JOINT Model43
															{
																OFFSET -2.89691 0 0
																CHANNELS 3 Zrotation Xrotation Yrotation
																End Site
																{
																	OFFSET 0 0 0
																}
															}
														}
													}
													JOINT Model44
													{
														OFFSET -9.54431 0.745064 -0.588928
														CHANNELS 3 Zrotation Xrotation Yrotation
														JOINT Model45
														{
															OFFSET -5.33978 0 0
															CHANNELS 3 Zrotation Xrotation Yrotation
															JOINT Model46
															{
																OFFSET -3.03619 -1.52588e-005 0
																CHANNELS 3 Zrotation Xrotation Yrotation
																End Site
																{
																	OFFSET 0 0 0
																}
															}
														}
													}
													JOINT Model47
													{
														OFFSET -9.4776 -1.51286 -0.485107
														CHANNELS 3 Zrotation Xrotation Yrotation
														JOINT Model48
														{
															OFFSET -4.96136 -1.52588e-005 0
															CHANNELS 3 Zrotation Xrotation Yrotation
															JOINT Model49
															{
																OFFSET -2.51965 0 0
																CHANNELS 3 Zrotation Xrotation Yrotation
																End Site
																{
																	OFFSET 0 0 0
																}
															}
														}
													}
													JOINT Model50
													{
														OFFSET -9.34247 -3.34118 0.239288
														CHANNELS 3 Zrotation Xrotation Yrotation
														JOINT Model51
														{
															OFFSET -3.28259 -2.28882e-005 0
															CHANNELS 3 Zrotation Xrotation Yrotation
															JOINT Model52
															{
																OFFSET -2.12921 0 0
																CHANNELS 3 Zrotation Xrotation Yrotation
																End Site
																{
																	OFFSET 0 0 0
																}
															}
														}
													}
												}
											}
										}
									}
								}
							}
						}
					}
				}
			}
		}
	}
	JOINT Model53
	{
		OFFSET 4.38025 -2.14632 -1.11517
		CHANNELS 3 Zrotation Xrotation Yrotation
		JOINT Model54
		{
			OFFSET 0 0 4.94998
			CHANNELS 3 Zrotation Xrotation Yrotation
			JOINT Model55
			{
				OFFSET 18.5642 0 0
				CHANNELS 3 Zrotation Xrotation Yrotation
				JOINT Model56
				{
					OFFSET 21.2884 0 0
					CHANNELS 3 Zrotation Xrotation Yrotation
					JOINT Model57
					{
						OFFSET 30.261 0 0
						CHANNELS 3 Zrotation Xrotation Yrotation
						JOINT Model58
						{
							OFFSET 11.7259 0 0
							CHANNELS 3 Zrotation Xrotation Yrotation
							JOINT Model59
							{
								OFFSET 10.682 0 0
								CHANNELS 3 Zrotation Xrotation Yrotation
								End Site
								{
									OFFSET 0 0 0
								}
							}
						}
					}
				}
			}
		}
	}
	JOINT Model60
	{
		OFFSET -4.38025 -2.14632 -1.11517
		CHANNELS 3 Zrotation Xrotation Yrotation
		JOINT Model61
		{
			OFFSET 0 0 -4.94998
			CHANNELS 3 Zrotation Xrotation Yrotation
			JOINT Model62
			{
				OFFSET -18.5642 0 0
				CHANNELS 3 Zrotation Xrotation Yrotation
				JOINT Model63
				{
					OFFSET -21.2884 0 0
					CHANNELS 3 Zrotation Xrotation Yrotation
					JOINT Model64
					{
						OFFSET -30.261 0 0
						CHANNELS 3 Zrotation Xrotation Yrotation
						JOINT Model65
						{
							OFFSET -11.7259 0 0
							CHANNELS 3 Zrotation Xrotation Yrotation
							JOINT Model66
							{
								OFFSET -10.682 0 0
								CHANNELS 3 Zrotation Xrotation Yrotation
								End Site
								{
									OFFSET 0 0 0
								}
							}
						}
					}
				}
			}
		}
	}
}
MOTION
Frames: 4
Frame Time: 0.033333
-486.654 168.741 -544.454 43.2574 -53.8288 52.8478 -180 4.29621e-031 -90 1.68876 -1.36046 1.00848 3.40263 -2.69081 2.05749 3.40263 -2.69038 2.05746 -8.45513 7.77282 3.01113 2.95666 8.62919 -4.60482 120.092 75.5343 58.4939 -10.8882 10.0997 6.38039 -167.277 84.4999 48.8109 128.464 16.6586 30.0918 -2.72384e-005 51.8767 4.78775e-005 -70.2363 27.2373 0.643463 1.78046e-007 40.2229 -2.2477e-007 12.5918 -3.38182 -29.9593 -72.0648 39.0385 39.3397 33.3638 2.10362 14.835 0.588947 0.308273 6.35287 -99.6409 81.413 100.35 -0.0181409 2.78011e-005 -0.117315 -0.124139 0.00241115 -0.799296 -79.8382 79.5773 80.5374 -0.000225786 -0.000220901 2.22193e-005 -0.000956239 0.000122924 -2.7287e-005 -66.7416 80.4058 67.2171 -0.000437141 1.59676e-005 -2.72957e-005 -0.000136616 -0.000109261 -5.46076e-005 -6.42159 81.2158 8.01779 -0.000218574 1.69263e-005 0.000212166 0.000901574 -0.000184777 -0.000218531 -59.9282 75.5373 58.5147 -8.32444 6.84583 4.42073 -167.277 84.4999 48.8109 -153.581 12.6765 18.6875 -1.0722e-005 31.2994 3.40416e-005 -95.7287 11.9442 0.619549 -6.02003e-006 17.582 2.59587e-006 -9.05364 1.22058 -15.3252 -72.0648 39.0385 39.3397 33.3638 2.10361 14.835 0.588946 0.308273 6.35287 -99.6409 81.413 100.35 -0.0181409 3.00742e-005 -0.117315 -0.124139 0.00241113 -0.799296 -79.8382 79.5773 80.5374 -0.000260648 -0.00021857 2.35629e-005 -0.000956229 0.000122991 -2.73309e-005 -66.7416 80.4058 67.2171 -0.000437134 1.48772e-005 -2.73282e-005 -0.000136606 -0.000109289 -5.46516e-005 -6.42159 81.2158 8.01779 -0.000218569 1.95752e-005 0.00021229 0.00090158 -0.00019125 -0.000218575 0.000811311 0.56661 89.91 -41.5613 -6.34693 -3.01917 6.51785e-007 -8.66122 -6.71315e-009 60.0613 4.78133 -0.00732464 -2.92121e-008 7.06686 -2.83866e-008 -77.1098 8.81173 -5.12555 -49.7434 7.44069 0.253004 -180 -0.566579 -90.09 -81.5782 -0.972024 4.38595 -8.26937e-007 -0.107395 -2.861e-008 85.4415 0.128362 -0.0079592 3.51701e-007 0.0698734 -1.10491e-007 -51.8828 0.56786 -0.733682 -35.4947 -5.65342e-008 -1.58628e-007 
-479.538 171.772 -536.729 42.7104 -54.5032 51.5826 -180 4.29621e-031 -90 1.67809 -1.41083 1.17639 3.38633 -2.78673 2.39469 3.38633 -2.78629 2.39466 -7.17318 8.55605 1.72295 2.77231 9.04456 -5.14765 120.092 75.5343 58.4939 -10.8539 10.6376 6.58804 -167.277 84.4999 48.8109 129.268 16.8139 29.4326 -2.69917e-005 51.6937 4.76837e-005 -70.6475 27.0156 0.643862 1.76358e-007 39.8928 -2.23683e-007 13.7985 -3.73838 -30.1884 -72.0648 39.0385 39.3397 33.3638 2.10362 14.835 0.588947 0.308273 6.35287 -99.6409 81.413 100.35 -0.0181409 2.78011e-005 -0.117315 -0.124139 0.00241115 -0.799296 -79.8382 79.5773 80.5374 -0.000225786 -0.000220901 2.22193e-005 -0.000956239 0.000122924 -2.7287e-005 -66.7416 80.4058 67.2171 -0.000437141 1.59676e-005 -2.72957e-005 -0.000136616 -0.000109261 -5.46076e-005 -6.42159 81.2158 8.01779 -0.000218574 1.69263e-005 0.000212166 0.000901574 -0.000184777 -0.000218531 -59.9282 75.5373 58.5147 -7.98641 7.35528 4.53069 -167.277 84.4999 48.8109 -152.353 12.8568 18.3219 -1.09912e-005 31.685 3.41822e-005 -95.917 11.6616 0.618705 -6.00008e-006 17.1613 2.58991e-006 -9.62473 1.18337 -13.9866 -72.0648 39.0385 39.3397 33.3638 2.10361 14.835 0.588946 0.308273 6.35287 -99.6409 81.413 100.35 -0.0181409 3.00742e-005 -0.117315 -0.124139 0.00241113 -0.799296 -79.8382 79.5773 80.5374 -0.000260648 -0.00021857 2.35629e-005 -0.000956229 0.000122991 -2.73309e-005 -66.7416 80.4058 67.2171 -0.000437134 1.48772e-005 -2.73282e-005 -0.000136606 -0.000109289 -5.46516e-005 -6.42159 81.2158 8.01779 -0.000218569 1.95752e-005 0.00021229 0.00090158 -0.00019125 -0.000218575 0.000811311 0.56661 89.91 -30.5312 -6.40783 -0.528097 6.51709e-007 -9.30194 -6.72503e-009 48.2812 5.11079 -0.0062822 -2.89571e-008 7.57708 -2.84191e-008 -61.696 0.65656 -1.09916 -64.2919 15.6253 4.83775 -180 -0.566579 -90.09 -77.8539 -1.01304 5.11465 -8.26996e-007 -0.224735 -2.86102e-008 64.4434 0.132717 -0.00722341 3.51737e-007 0.0889382 -1.10491e-007 -50.2688 -2.01273 1.27951 -35.4947 -1.39234e-007 -2.18054e-007 
-472.448 173.852 -528.933 42.5552 -54.9631 49.8622 -180 4.29621e-031 -90 1.69526 -1.39805 1.09528 3.41845 -2.76326 2.23245 3.41845 -2.76282 2.23242 -6.62917 8.93418 0.874523 3.19089 9.17017 -5.42669 120.092 75.5343 58.4939 -10.633 10.9703 6.65818 -167.277 84.4999 48.8109 129.179 16.9176 28.4286 -2.68394e-005 51.58 4.75643e-005 -71.8197 26.5529 0.645805 1.72899e-007 39.2062 -2.21481e-007 13.6674 -3.69863 -30.1579 -72.0648 39.0385 39.3397 33.3638 2.10362 14.835 0.588947 0.308273 6.35287 -99.6409 81.413 100.35 -0.0181409 2.78011e-005 -0.117315 -0.124139 0.00241115 -0.799296 -79.8382 79.5773 80.5374 -0.000225786 -0.000220901 2.22193e-005 -0.000956239 0.000122924 -2.7287e-005 -66.7416 80.4058 67.2171 -0.000437141 1.59676e-005 -2.72957e-005 -0.000136616 -0.000109261 -5.46076e-005 -6.42159 81.2158 8.01779 -0.000218574 1.69263e-005 0.000212166 0.000901574 -0.000184777 -0.000218531 -59.9282 75.5373 58.5147 -7.46516 7.64879 4.50991 -167.277 84.4999 48.8109 -152.154 13.1008 18.134 -1.1356e-005 32.2024 3.43752e-005 -96.3933 11.3571 0.617489 -5.97891e-006 16.7129 2.58375e-006 -9.98624 1.15957 -13.2139 -72.0648 39.0385 39.3397 33.3638 2.10361 14.835 0.588946 0.308273 6.35287 -99.6409 81.413 100.35 -0.0181409 3.00742e-005 -0.117315 -0.124139 0.00241113 -0.799296 -79.8382 79.5773 80.5374 -0.000260648 -0.00021857 2.35629e-005 -0.000956229 0.000122991 -2.73309e-005 -66.7416 80.4058 67.2171 -0.000437134 1.48772e-005 -2.73282e-005 -0.000136606 -0.000109289 -5.46516e-005 -6.42159 81.2158 8.01779 -0.000218569 1.95752e-005 0.00021229 0.00090158 -0.00019125 -0.000218575 0.000811311 0.56661 89.91 -21.9954 -5.3696 2.72391 6.51699e-007 -9.38363 -6.72661e-009 40.7258 3.53976 -0.00544096 -3.01242e-008 5.2331 -2.82889e-008 -48.1661 -5.81536 4.41945 -69.7484 21.7259 9.46132 -180 -0.566579 -90.09 -70.7074 -0.644983 5.06152 -8.26969e-007 -0.169802 -2.86101e-008 41.0616 -0.101712 -0.00525825 3.51123e-007 -0.229819 -1.10492e-007 -44.734 -5.80898 4.85425 -35.4947 -2.512e-007 -2.41455e-007 
-465.75 174.268 -521.319 43.0858 -55.1218 48.5705 -180 4.29621e-031 -90 1.72077 -1.29989 0.843919 3.46183 -2.57413 1.72717 3.46183 -2.5737 1.72714 -7.37605 8.92512 0.858641 4.6987 9.0927 -5.91781 120.092 75.5343 58.4939 -10.5305 10.907 6.6031 -167.277 84.4999 48.8109 128.362 17.0064 27.7613 -2.70289e-005 51.7214 4.77129e-005 -73.212 25.8416 0.646916 1.67704e-007 38.1492 -2.18234e-007 11.6073 -3.10369 -29.8495 -72.0648 39.0385 39.3397 33.3638 2.10362 14.835 0.588947 0.308273 6.35287 -99.6409 81.413 100.35 -0.0181409 2.78011e-005 -0.117315 -0.124139 0.00241115 -0.799296 -79.8382 79.5773 80.5374 -0.000225786 -0.000220901 2.22193e-005 -0.000956239 0.000122924 -2.7287e-005 -66.7416 80.4058 67.2171 -0.000437141 1.59676e-005 -2.72957e-005 -0.000136616 -0.000109261 -5.46076e-005 -6.42159 81.2158 8.01779 -0.000218574 1.69263e-005 0.000212166 0.000901574 -0.000184777 -0.000218531 -59.9282 75.5373 58.5147 -6.92789 8.1621 4.56354 -167.277 84.4999 48.8109 -152.376 13.3782 17.9232 -1.18283e-005 32.8637 3.46292e-005 -97.1952 11.0982 0.615922 -5.96132e-006 16.3385 2.57874e-006 -10.1169 1.23782 -13.9157 -72.0648 39.0385 39.3397 33.3638 2.10361 14.835 0.588946 0.308273 6.35287 -99.6409 81.413 100.35 -0.0181409 3.00742e-005 -0.117315 -0.124139 0.00241113 -0.799296 -79.8382 79.5773 80.5374 -0.000260648 -0.00021857 2.35629e-005 -0.000956229 0.000122991 -2.73309e-005 -66.7416 80.4058 67.2171 -0.000437134 1.48772e-005 -2.73282e-005 -0.000136606 -0.000109289 -5.46516e-005 -6.42159 81.2158 8.01779 -0.000218569 1.95752e-005 0.00021229 0.00090158 -0.00019125 -0.000218575 0.000811311 0.56661 89.91 -21.1854 -5.14688 4.10892 6.51647e-007 -9.82251 -6.73533e-009 49.6651 1.224 -0.0063433 -3.18463e-008 1.74477 -2.8184e-008 -48.1513 -6.16015 4.69232 -43.0289 17.9741 0.391125 -180 -0.566579 -90.09 -62.3529 -0.0254662 4.56551 -8.2679e-007 0.187323 -2.86101e-008 21.0085 -0.957088 0.426517 3.48725e-007 -1.47275 -1.10527e-007 -36.4064 -7.0618 7.22854 -35.4947 -3.96658e-007 -2.07996e-007 
